# xmcd
#
# Track frame offsets: 
#        150
#        20644
#        40572
#        57125
#        74316
#        88885
#        107746
#        127397
#        145479
#        166788
#        188390
#        209479
#
# Disc length: 2967 seconds
#
# Revision: 0
# Processed by: cddbd v1.5.2PL0 Copyright (c) Steve Scherf et al.
# Submitted via: ExactAudioCopy v0.99pb5
#
DISCID=ab0b950c
DTITLE=Gin Chillers - hrough The Year
DYEAR=1900
DGENRE=Pop/Funk
TTITLE0=New York State Of Mind
TTITLE1=This Masquerade
TTITLE2=sunday's Hung-Over
TTITLE3=Walking On A Rainbow
TTITLE4=29 Ways
TTITLE5=sing
TTITLE6=Hip Shakin' Baby
TTITLE7=Whatever Lola Wants
TTITLE8=got To Get You Into My Life
TTITLE9=Superstition
TTITLE10=You're Gone
TTITLE11=Winter Weather
EXTD=
EXTT0=
EXTT1=
EXTT2=
EXTT3=
EXTT4=
EXTT5=
EXTT6=
EXTT7=
EXTT8=
EXTT9=
EXTT10=
EXTT11=
PLAYORDER=
